<svg width="14" height="17" viewBox="0 0 14 17" fill="none" xmlns="http://www.w3.org/2000/svg">
<g opacity="0.4">
<path d="M5.89691 2.46282L6.5841 1.75407C6.87508 1.45397 7.34559 1.45397 7.63347 1.75407L13.6511 7.95725C13.9421 8.25735 13.9421 8.74262 13.6511 9.03953L7.63347 15.2459C7.3425 15.546 6.87198 15.546 6.5841 15.2459L5.89691 14.5372C5.60283 14.2339 5.60903 13.739 5.90929 13.4421L9.63935 9.77702H0.742917C0.331217 9.77702 0 9.43541 0 9.0108V7.98917C0 7.56456 0.331217 7.22296 0.742917 7.22296H9.63935L5.90929 3.55788C5.60593 3.26097 5.59974 2.76612 5.89691 2.46282Z" fill="black"/>
</g>
</svg>
