<svg width="62" height="61" viewBox="0 0 62 61" fill="none" xmlns="http://www.w3.org/2000/svg">
<path d="M61.0605 30.1042C61.0605 46.7303 47.5824 60.2084 30.9563 60.2084C14.3302 60.2084 0.852051 46.7303 0.852051 30.1042C0.852051 13.4781 14.3302 0 30.9563 0C47.5824 0 61.0605 13.4781 61.0605 30.1042Z" fill="#FF4518"/>
<path d="M27.8128 29.9001L28.2114 39.467H33.6925L34.0911 29.9001V13.9054H27.8128V29.9001ZM30.9519 50.2298C33.1444 50.2298 34.689 48.7349 34.689 46.6422C34.689 44.5992 33.1444 43.1044 30.9519 43.1044C28.7097 43.1044 27.165 44.5992 27.165 46.6422C27.165 48.7349 28.7097 50.2298 30.9519 50.2298Z" fill="white"/>
</svg>
