<svg width="20" height="20" viewBox="0 0 20 20" fill="none" xmlns="http://www.w3.org/2000/svg">
<path d="M9.08334 5.41666H10.9167V7.24999H9.08334V5.41666ZM9.08334 9.08333H10.9167V14.5833H9.08334V9.08333ZM10 0.833328C4.94001 0.833328 0.833344 4.93999 0.833344 9.99999C0.833344 15.06 4.94001 19.1667 10 19.1667C15.06 19.1667 19.1667 15.06 19.1667 9.99999C19.1667 4.93999 15.06 0.833328 10 0.833328ZM10 17.3333C5.95751 17.3333 2.66668 14.0425 2.66668 9.99999C2.66668 5.95749 5.95751 2.66666 10 2.66666C14.0425 2.66666 17.3333 5.95749 17.3333 9.99999C17.3333 14.0425 14.0425 17.3333 10 17.3333Z" fill="#0288D1"/>
</svg>
