<svg width="16" height="22" viewBox="0 0 16 22" fill="none" xmlns="http://www.w3.org/2000/svg">
<path d="M2 21.8C1.45 21.8 0.979167 21.6042 0.5875 21.2125C0.195833 20.8208 0 20.35 0 19.8V8.80001C0 8.25001 0.195833 7.77918 0.5875 7.38751C0.979167 6.99585 1.45 6.80001 2 6.80001H4C4.28333 6.80001 4.52083 6.89585 4.7125 7.08751C4.90417 7.27918 5 7.51668 5 7.80001C5 8.08335 4.90417 8.32085 4.7125 8.51251C4.52083 8.70418 4.28333 8.80001 4 8.80001H2V19.8H14V8.80001H12C11.7167 8.80001 11.4792 8.70418 11.2875 8.51251C11.0958 8.32085 11 8.08335 11 7.80001C11 7.51668 11.0958 7.27918 11.2875 7.08751C11.4792 6.89585 11.7167 6.80001 12 6.80001H14C14.55 6.80001 15.0208 6.99585 15.4125 7.38751C15.8042 7.77918 16 8.25001 16 8.80001V19.8C16 20.35 15.8042 20.8208 15.4125 21.2125C15.0208 21.6042 14.55 21.8 14 21.8H2ZM7 3.62501L6.1 4.52501C5.9 4.72501 5.66667 4.82085 5.4 4.81251C5.13333 4.80418 4.9 4.70001 4.7 4.50001C4.51667 4.30001 4.42083 4.06668 4.4125 3.80001C4.40417 3.53335 4.5 3.30001 4.7 3.10001L7.3 0.500012C7.5 0.300012 7.73333 0.200012 8 0.200012C8.26667 0.200012 8.5 0.300012 8.7 0.500012L11.3 3.10001C11.4833 3.28335 11.575 3.51251 11.575 3.78751C11.575 4.06251 11.4833 4.30001 11.3 4.50001C11.1 4.70001 10.8625 4.80001 10.5875 4.80001C10.3125 4.80001 10.075 4.70001 9.875 4.50001L9 3.62501V13.8C9 14.0833 8.90417 14.3208 8.7125 14.5125C8.52083 14.7042 8.28333 14.8 8 14.8C7.71667 14.8 7.47917 14.7042 7.2875 14.5125C7.09583 14.3208 7 14.0833 7 13.8V3.62501Z" fill="white"/>
</svg>
