<svg width="16" height="22" viewBox="0 0 16 22" fill="none" xmlns="http://www.w3.org/2000/svg">
<path d="M2 22C1.45 22 0.979167 21.8042 0.5875 21.4125C0.195833 21.0208 0 20.55 0 20V8.99999C0 8.44999 0.195833 7.97916 0.5875 7.58749C0.979167 7.19583 1.45 6.99999 2 6.99999H4C4.28333 6.99999 4.52083 7.09583 4.7125 7.28749C4.90417 7.47916 5 7.71666 5 7.99999C5 8.28333 4.90417 8.52083 4.7125 8.71249C4.52083 8.90416 4.28333 8.99999 4 8.99999H2V20H14V8.99999H12C11.7167 8.99999 11.4792 8.90416 11.2875 8.71249C11.0958 8.52083 11 8.28333 11 7.99999C11 7.71666 11.0958 7.47916 11.2875 7.28749C11.4792 7.09583 11.7167 6.99999 12 6.99999H14C14.55 6.99999 15.0208 7.19583 15.4125 7.58749C15.8042 7.97916 16 8.44999 16 8.99999V20C16 20.55 15.8042 21.0208 15.4125 21.4125C15.0208 21.8042 14.55 22 14 22H2ZM7 3.82499L6.1 4.72499C5.9 4.92499 5.66667 5.02083 5.4 5.01249C5.13333 5.00416 4.9 4.89999 4.7 4.69999C4.51667 4.49999 4.42083 4.26666 4.4125 3.99999C4.40417 3.73333 4.5 3.49999 4.7 3.29999L7.3 0.699994C7.5 0.499994 7.73333 0.399994 8 0.399994C8.26667 0.399994 8.5 0.499994 8.7 0.699994L11.3 3.29999C11.4833 3.48333 11.575 3.71249 11.575 3.98749C11.575 4.26249 11.4833 4.49999 11.3 4.69999C11.1 4.89999 10.8625 4.99999 10.5875 4.99999C10.3125 4.99999 10.075 4.89999 9.875 4.69999L9 3.82499V14C9 14.2833 8.90417 14.5208 8.7125 14.7125C8.52083 14.9042 8.28333 15 8 15C7.71667 15 7.47917 14.9042 7.2875 14.7125C7.09583 14.5208 7 14.2833 7 14V3.82499Z" fill="#823F98"/>
</svg>
