<svg width="16" height="16" viewBox="0 0 16 16" fill="none" xmlns="http://www.w3.org/2000/svg">
<g id="Group 35">
<path id="Vector" d="M14.1192 -0.00088501H1.88256C0.842851 -0.00088501 0 0.841966 0 1.88168V14.1183C0 15.158 0.842851 16.0009 1.88256 16.0009H14.1192C15.1589 16.0009 16.0018 15.158 16.0018 14.1183V1.88168C16.0018 0.841966 15.1589 -0.00088501 14.1192 -0.00088501Z" fill="#7F3F98"/>
<path id="Path" d="M11.4754 13.0059H4.46105C3.05367 13.0059 1.90525 11.6675 1.90525 10.0272V5.93298C1.90525 5.63116 2.11917 5.36871 2.38939 5.36871C2.6596 5.36871 2.87353 5.61804 2.87353 5.93298V10.0272C2.87353 11.0507 3.5941 11.8905 4.4723 11.8905H11.4979C12.3761 11.8905 13.0967 11.0507 13.0967 10.0272V5.93298C13.0967 5.63116 13.3106 5.36871 13.5808 5.36871C13.8511 5.36871 14.065 5.61804 14.065 5.93298V10.0272C14.0312 11.6675 12.8828 13.0059 11.4754 13.0059Z" fill="white"/>
<path id="Path_2" d="M11.47 10.8844H4.48905C4.05204 10.8844 3.69347 10.471 3.69347 9.96719V3.74019C3.69347 3.23635 4.05204 2.82294 4.48905 2.82294H11.4812C11.9182 2.82294 12.2768 3.23635 12.2768 3.74019V9.96719C12.2656 10.471 11.907 10.8844 11.47 10.8844Z" fill="white"/>
</g>
</svg>
