<svg width="16" height="16" viewBox="0 0 16 16" fill="none" xmlns="http://www.w3.org/2000/svg">
<g clip-path="url(#clip0_162_779)">
<path d="M7.7765 4.99268H5.82292C5.81389 5.10782 5.70382 6.58218 5.68915 6.77296H7.7765V4.99268Z" fill="white"/>
<path d="M10.0337 4.99268H8.07959V6.77296H10.1658C10.1517 6.58218 10.0411 5.10782 10.0332 4.99268H10.0337Z" fill="white"/>
<path d="M12.4474 12.1291H10.7591L10.3165 11.4799H11.5933C11.678 11.4799 11.7435 11.4128 11.7435 11.3292C11.7435 11.2457 11.678 11.1768 11.5933 11.1768H10.11L9.64711 10.4972H11.3382C11.9309 10.4972 12.4152 10.0163 12.4152 9.42364V9.41122L12.0172 4.00432V4.0269C12.0172 3.43422 11.5346 2.95105 10.9414 2.95105H4.91586C4.32205 2.95105 3.83944 3.43422 3.83944 4.0269V4.00432L3.44207 9.41122V9.42364C3.44207 10.0163 3.92411 10.4972 4.51792 10.4972H6.20845L5.74617 11.1768H4.26561C4.1832 11.1768 4.11546 11.2457 4.11546 11.3292C4.11546 11.4128 4.1832 11.4799 4.26561 11.4799H5.53901L5.09535 12.1291H3.41441C3.24564 12.1291 3.11243 12.2645 3.11243 12.4327C3.11243 12.6009 3.2462 12.7353 3.41441 12.7353H4.6833L4.26165 13.3556C4.23456 13.3946 4.2323 13.4471 4.25319 13.4871C4.27633 13.53 4.32205 13.5566 4.3689 13.5566H5.2692C5.32283 13.5566 5.36855 13.5244 5.38887 13.4753L5.68295 12.7353H10.1726L10.4673 13.4753C10.4864 13.5244 10.5344 13.5566 10.5875 13.5566H11.49C11.5363 13.5566 11.5809 13.53 11.6029 13.4871C11.6255 13.4471 11.6221 13.3946 11.5956 13.3556L11.1734 12.7353H12.4485C12.6127 12.7353 12.7522 12.5987 12.7522 12.4327C12.7522 12.2668 12.6127 12.1291 12.4485 12.1291H12.4474ZM9.64372 9.31075C9.44785 9.31075 9.28981 9.15214 9.28981 8.95514C9.28981 8.75815 9.44842 8.59954 9.64372 8.59954C9.83902 8.59954 10.0021 8.75815 10.0021 8.95514C10.0021 9.15214 9.84128 9.31075 9.64372 9.31075ZM9.55115 11.1763H6.30272L6.57366 10.4967H9.2819L9.55115 11.1763ZM10.9572 8.95514C10.9572 9.15157 10.7986 9.31075 10.601 9.31075C10.4035 9.31075 10.246 9.15214 10.246 8.95514C10.246 8.75815 10.4023 8.59954 10.601 8.59954C10.7997 8.59954 10.9572 8.75815 10.9572 8.95514ZM5.07842 6.83844L5.22123 4.90237C5.22179 4.61845 5.45378 4.38646 5.73883 4.38646H10.1156C10.4012 4.38646 10.6338 4.61845 10.6343 4.9018L10.7794 6.83844V6.86046C10.7794 7.14663 10.548 7.37749 10.2624 7.37749H5.5932C5.30872 7.37749 5.0756 7.14663 5.0756 6.86046C5.0756 6.85425 5.07729 6.84578 5.07842 6.83844ZM5.25453 9.31075C5.0581 9.31075 4.89892 9.15214 4.89892 8.95514C4.89892 8.75815 5.0581 8.59954 5.25453 8.59954C5.45096 8.59954 5.609 8.75815 5.609 8.95514C5.609 9.15214 5.45039 9.31075 5.25453 9.31075ZM5.85398 8.95514C5.85398 8.75871 6.01315 8.59954 6.21241 8.59954C6.41166 8.59954 6.56688 8.75815 6.56688 8.95514C6.56688 9.15214 6.40658 9.31075 6.21241 9.31075C6.01823 9.31075 5.85398 9.15214 5.85398 8.95514ZM5.92453 12.1291L6.18193 11.4799H9.67364L9.93103 12.1291H5.9251H5.92453Z" fill="white"/>
<path d="M5.59317 7.37751H10.2623C10.5479 7.37751 10.7794 7.14665 10.7794 6.86047V6.83846L10.6343 4.90182C10.6343 4.61846 10.4012 4.38647 10.1156 4.38647H5.73879C5.45375 4.38647 5.22176 4.61846 5.22119 4.90239L5.07838 6.83846C5.07726 6.8458 5.07556 6.85427 5.07556 6.86047C5.07556 7.14665 5.30868 7.37751 5.59317 7.37751ZM8.08015 4.9927H10.0343C10.0422 5.10785 10.1528 6.5822 10.1669 6.77298H8.08071V4.9927H8.08015ZM5.82346 4.9927H7.77704V6.77298H5.68969C5.70436 6.5822 5.81443 5.10785 5.82346 4.9927Z" fill="#7F0D82"/>
<path d="M10.2465 8.95515C10.2465 9.15158 10.4029 9.31076 10.6016 9.31076C10.8003 9.31076 10.9577 9.15215 10.9577 8.95515C10.9577 8.75816 10.7991 8.59955 10.6016 8.59955C10.404 8.59955 10.2465 8.75816 10.2465 8.95515Z" fill="#7F0D82"/>
<path d="M9.64371 8.6001C9.44784 8.6001 9.28979 8.75871 9.28979 8.9557C9.28979 9.1527 9.44841 9.31131 9.64371 9.31131C9.83901 9.31131 10.0021 9.1527 10.0021 8.9557C10.0021 8.75871 9.84127 8.6001 9.64371 8.6001Z" fill="#7F0D82"/>
<path d="M5.25447 8.6001C5.05804 8.6001 4.89886 8.75871 4.89886 8.9557C4.89886 9.1527 5.05804 9.31131 5.25447 9.31131C5.4509 9.31131 5.60895 9.1527 5.60895 8.9557C5.60895 8.75871 5.45034 8.6001 5.25447 8.6001Z" fill="#7F0D82"/>
<path d="M6.56685 8.95515C6.56685 8.75872 6.40654 8.59955 6.21237 8.59955C6.0182 8.59955 5.85394 8.75816 5.85394 8.95515C5.85394 9.15215 6.01312 9.31076 6.21237 9.31076C6.41162 9.31076 6.56685 9.15215 6.56685 8.95515Z" fill="#7F0D82"/>
<path d="M6.18189 11.4799L5.9245 12.129H9.93043L9.6736 11.4799H6.18189Z" fill="#7F0D82"/>
<path d="M6.5736 10.4966L6.30322 11.1762H9.55165L9.28241 10.4966H6.5736Z" fill="#7F0D82"/>
<path d="M8.00226 0.00177002C3.58993 0.00177002 0 3.59113 0 8.00346C0 12.4158 3.58993 16.0023 8.00226 16.0023C12.4146 16.0023 16 12.4147 16 8.00346C16 3.59226 12.4123 0.00177002 8.00226 0.00177002ZM12.4473 12.7358H11.1722L11.5944 13.3562C11.6215 13.3951 11.6244 13.4476 11.6018 13.4877C11.5798 13.5306 11.5352 13.5571 11.4889 13.5571H10.5863C10.5333 13.5571 10.4853 13.5249 10.4661 13.4758L10.1715 12.7358H5.68179L5.38771 13.4758C5.36739 13.5249 5.32167 13.5571 5.26805 13.5571H4.36774C4.32033 13.5571 4.27461 13.5306 4.25203 13.4877C4.23114 13.4476 4.2334 13.3951 4.2605 13.3562L4.68214 12.7358H3.41325C3.24448 12.7358 3.11127 12.5992 3.11127 12.4333C3.11127 12.2673 3.24504 12.1296 3.41325 12.1296H5.09419L5.53785 11.4805H4.26445C4.18204 11.4805 4.1143 11.4133 4.1143 11.3298C4.1143 11.2462 4.18204 11.1774 4.26445 11.1774H5.74501L6.2073 10.4978H4.51676C3.92239 10.4978 3.44091 10.0169 3.44091 9.42419V9.41178L3.83828 4.00487V4.02745C3.83828 3.43478 4.32089 2.9516 4.9147 2.9516H10.9402C11.5335 2.9516 12.0161 3.43478 12.0161 4.02745V4.00487L12.414 9.41178V9.42419C12.414 10.0169 11.9297 10.4978 11.3371 10.4978H9.64595L10.1088 11.1774H11.5922C11.6769 11.1774 11.7423 11.2462 11.7423 11.3298C11.7423 11.4133 11.6769 11.4805 11.5922 11.4805H10.3154L10.7579 12.1296H12.4462C12.6105 12.1296 12.7499 12.2651 12.7499 12.4333C12.7499 12.6015 12.6105 12.7358 12.4462 12.7358H12.4473Z" fill="#7F0D82"/>
</g>
<defs>
<clipPath id="clip0_162_779">
<rect width="16" height="16" fill="white" transform="translate(0 0.00177002)"/>
</clipPath>
</defs>
</svg>
